<svg width="40" height="40" viewBox="0 0 40 40" fill="none" xmlns="http://www.w3.org/2000/svg">
<path d="M28.3331 28.3333C26.032 28.3333 24.1665 26.4678 24.1665 24.1667C24.1665 21.8655 26.032 20 28.3331 20C30.6343 20 32.4998 21.8655 32.4998 24.1667C32.4998 26.4678 30.6343 28.3333 28.3331 28.3333ZM28.3331 28.3333C32.4753 28.3333 35.8331 31.6912 35.8331 35.8333M28.3331 28.3333C24.191 28.3333 20.8331 31.6912 20.8331 35.8333" stroke="#211743" stroke-width="2" stroke-linecap="round" stroke-linejoin="round"/>
<path d="M11.6669 12.5003C9.36569 12.5003 7.5002 10.6348 7.5002 8.33366C7.5002 6.03248 9.36569 4.16699 11.6669 4.16699C13.9681 4.16699 15.8335 6.03248 15.8335 8.33366C15.8335 10.6348 13.9681 12.5003 11.6669 12.5003Z" fill="#AD75FF"/>
<path d="M11.6669 12.5003C9.36569 12.5003 7.5002 10.6348 7.5002 8.33366C7.5002 6.03248 9.36569 4.16699 11.6669 4.16699C13.9681 4.16699 15.8335 6.03248 15.8335 8.33366C15.8335 10.6348 13.9681 12.5003 11.6669 12.5003ZM11.6669 12.5003C15.809 12.5003 19.1669 15.8582 19.1669 20.0003M11.6669 12.5003C7.52474 12.5003 4.16687 15.8582 4.16687 20.0003" stroke="#211743" stroke-width="2" stroke-linecap="round" stroke-linejoin="round"/>
<path d="M5.83313 25.833C5.83313 30.4402 9.55931 34.1663 14.1665 34.1663L13.3331 30.833" stroke="#211743" stroke-width="2" stroke-linecap="round" stroke-linejoin="round"/>
<path d="M30.8333 14.1663C30.8333 9.55919 27.1072 5.83301 22.5 5.83301L23.3333 9.16634" stroke="#211743" stroke-width="2" stroke-linecap="round" stroke-linejoin="round"/>
</svg>
