<svg width="40" height="40" viewBox="0 0 40 40" fill="none" xmlns="http://www.w3.org/2000/svg">
<path d="M19.1747 3.33301C10.3536 3.74871 3.33337 10.7244 3.33337 19.2673C3.33337 23.5003 5.05646 27.3467 7.86714 30.201C8.48597 30.8295 8.89914 31.6882 8.73239 32.5718C8.45719 34.0168 7.83354 35.3645 6.92037 36.4878C9.32297 36.9348 11.8212 36.5323 13.9637 35.3928C14.7211 34.9902 15.0998 34.7887 15.367 34.7478C15.6342 34.707 16.017 34.779 16.7825 34.9227C17.846 35.1225 18.9257 35.2225 20.0084 35.2212C28.9637 35.2212 36.2717 28.465 36.6667 19.9898" stroke="#211743" stroke-width="2.5" stroke-linecap="round" stroke-linejoin="round"/>
<path d="M36.6667 9.16634V4.99967C33.3333 4.99967 30.8333 3.33301 30.8333 3.33301C30.8333 3.33301 28.3333 4.99967 25 4.99967V9.16634C25 14.9997 30.8333 16.6663 30.8333 16.6663C30.8333 16.6663 36.6667 14.9997 36.6667 9.16634Z" fill="#AD75FF" stroke="#211743" stroke-width="2.5" stroke-linecap="round" stroke-linejoin="round"/>
<path d="M19.9925 20H20.0075M13.3334 20H13.3483" stroke="#211743" stroke-width="3.33333" stroke-linecap="round" stroke-linejoin="round"/>
</svg>
