<svg width="40" height="40" viewBox="0 0 40 40" fill="none" xmlns="http://www.w3.org/2000/svg">
<path d="M25 12.5003C25 7.89796 21.269 4.16699 16.6666 4.16699C12.0643 4.16699 8.33331 7.89796 8.33331 12.5003C8.33331 17.1027 12.0643 20.8337 16.6666 20.8337C21.269 20.8337 25 17.1027 25 12.5003Z" stroke="#211743" stroke-width="2.5" stroke-linecap="round" stroke-linejoin="round"/>
<path d="M33.3333 29.167C33.3333 26.4055 31.0948 24.167 28.3333 24.167C25.5718 24.167 23.3333 26.4055 23.3333 29.167C23.3333 31.9285 25.5718 34.167 28.3333 34.167C31.0948 34.167 33.3333 31.9285 33.3333 29.167Z" fill="#AD75FF"/>
<path d="M35 35.8337L32.5 33.3337M33.3333 29.167C33.3333 26.4055 31.0948 24.167 28.3333 24.167C25.5718 24.167 23.3333 26.4055 23.3333 29.167C23.3333 31.9285 25.5718 34.167 28.3333 34.167C31.0948 34.167 33.3333 31.9285 33.3333 29.167Z" stroke="#211743" stroke-width="2.5" stroke-linecap="round" stroke-linejoin="round"/>
<path d="M5 32.4997C5 26.0563 10.2233 20.833 16.6667 20.833C18.456 20.833 20.1512 21.2358 21.6667 21.9557" stroke="#211743" stroke-width="2.5" stroke-linecap="round" stroke-linejoin="round"/>
</svg>
