<svg width="512" height="250" viewBox="0 0 512 250" fill="none" xmlns="http://www.w3.org/2000/svg">
<rect width="512" height="250" rx="24" fill="url(#paint0_linear_134_80)"/>
<mask id="mask0_134_80" style="mask-type:alpha" maskUnits="userSpaceOnUse" x="0" y="68" width="512" height="115">
<rect y="68" width="512" height="115" fill="url(#paint1_linear_134_80)"/>
</mask>
<g mask="url(#mask0_134_80)">
<g filter="url(#filter0_d_134_80)">
<rect x="-125.5" y="84" width="137" height="35" rx="17.5" fill="white" shape-rendering="crispEdges"/>
<rect x="-125" y="84.5" width="136" height="34" rx="17" stroke="#EDE0FF" stroke-dasharray="3 3" shape-rendering="crispEdges"/>
</g>
<g filter="url(#filter1_d_134_80)">
<rect x="27.5" y="84" width="113" height="35" rx="17.5" fill="white" shape-rendering="crispEdges"/>
<rect x="28" y="84.5" width="112" height="34" rx="17" stroke="#EDE0FF" stroke-dasharray="3 3" shape-rendering="crispEdges"/>
<path d="M48.6215 106.096C46.0775 106.096 44.1815 104.284 44.1815 101.8C44.1815 99.316 46.0775 97.504 48.6335 97.504C49.9295 97.504 51.0575 97.948 51.8255 98.812L51.0455 99.568C50.3975 98.884 49.6055 98.572 48.6815 98.572C46.7855 98.572 45.3815 99.94 45.3815 101.8C45.3815 103.66 46.7855 105.028 48.6815 105.028C49.6055 105.028 50.3975 104.704 51.0455 104.02L51.8255 104.776C51.0575 105.64 49.9295 106.096 48.6215 106.096ZM55.8238 106.072C53.9158 106.072 52.5118 104.716 52.5118 102.82C52.5118 100.924 53.9158 99.58 55.8238 99.58C57.7318 99.58 59.1238 100.924 59.1238 102.82C59.1238 104.716 57.7318 106.072 55.8238 106.072ZM55.8238 105.064C57.0478 105.064 57.9598 104.176 57.9598 102.82C57.9598 101.464 57.0478 100.588 55.8238 100.588C54.5998 100.588 53.6758 101.464 53.6758 102.82C53.6758 104.176 54.5998 105.064 55.8238 105.064ZM65.565 97.096H66.717V106H65.613V104.992C65.097 105.712 64.281 106.072 63.345 106.072C61.485 106.072 60.129 104.764 60.129 102.82C60.129 100.876 61.485 99.58 63.345 99.58C64.245 99.58 65.037 99.916 65.565 100.6V97.096ZM63.441 105.064C64.653 105.064 65.577 104.176 65.577 102.82C65.577 101.464 64.653 100.588 63.441 100.588C62.217 100.588 61.293 101.464 61.293 102.82C61.293 104.176 62.217 105.064 63.441 105.064ZM74.6447 102.856C74.6447 102.952 74.6327 103.096 74.6207 103.204H69.4607C69.6047 104.32 70.5047 105.064 71.7647 105.064C72.5087 105.064 73.1327 104.812 73.6007 104.296L74.2367 105.04C73.6607 105.712 72.7847 106.072 71.7287 106.072C69.6767 106.072 68.3087 104.716 68.3087 102.82C68.3087 100.936 69.6647 99.58 71.5007 99.58C73.3367 99.58 74.6447 100.9 74.6447 102.856ZM71.5007 100.552C70.3967 100.552 69.5807 101.296 69.4607 102.376H73.5407C73.4207 101.308 72.6167 100.552 71.5007 100.552ZM80.571 100.708C80.979 99.964 81.771 99.58 82.887 99.58V100.696C82.791 100.684 82.707 100.684 82.623 100.684C81.387 100.684 80.619 101.44 80.619 102.832V106H79.467V99.64H80.571V100.708ZM89.9963 102.856C89.9963 102.952 89.9843 103.096 89.9723 103.204H84.8123C84.9563 104.32 85.8563 105.064 87.1163 105.064C87.8603 105.064 88.4843 104.812 88.9523 104.296L89.5883 105.04C89.0123 105.712 88.1363 106.072 87.0803 106.072C85.0283 106.072 83.6603 104.716 83.6603 102.82C83.6603 100.936 85.0163 99.58 86.8523 99.58C88.6883 99.58 89.9963 100.9 89.9963 102.856ZM86.8523 100.552C85.7483 100.552 84.9323 101.296 84.8123 102.376H88.8923C88.7723 101.308 87.9683 100.552 86.8523 100.552ZM95.9787 99.64H97.1067L94.3227 106H93.1467L90.3627 99.64H91.5627L93.7467 104.74L95.9787 99.64ZM98.7578 98.416C98.3138 98.416 97.9778 98.092 97.9778 97.672C97.9778 97.252 98.3138 96.916 98.7578 96.916C99.2018 96.916 99.5378 97.24 99.5378 97.648C99.5378 98.08 99.2138 98.416 98.7578 98.416ZM98.1818 106V99.64H99.3338V106H98.1818ZM107.281 102.856C107.281 102.952 107.269 103.096 107.257 103.204H102.097C102.241 104.32 103.141 105.064 104.401 105.064C105.145 105.064 105.769 104.812 106.237 104.296L106.873 105.04C106.297 105.712 105.421 106.072 104.365 106.072C102.313 106.072 100.945 104.716 100.945 102.82C100.945 100.936 102.301 99.58 104.137 99.58C105.973 99.58 107.281 100.9 107.281 102.856ZM104.137 100.552C103.033 100.552 102.217 101.296 102.097 102.376H106.177C106.057 101.308 105.253 100.552 104.137 100.552ZM117.356 99.64H118.388L116.012 106H114.908L113.072 101.176L111.212 106H110.108L107.744 99.64H108.836L110.684 104.704L112.604 99.64H113.576L115.46 104.728L117.356 99.64ZM121.299 106.072C120.243 106.072 119.199 105.748 118.671 105.328L119.151 104.416C119.691 104.8 120.555 105.076 121.383 105.076C122.451 105.076 122.895 104.752 122.895 104.212C122.895 102.784 118.875 104.02 118.875 101.488C118.875 100.348 119.895 99.58 121.527 99.58C122.355 99.58 123.291 99.796 123.843 100.156L123.351 101.068C122.775 100.696 122.139 100.564 121.515 100.564C120.507 100.564 120.015 100.936 120.015 101.44C120.015 102.94 124.047 101.716 124.047 104.188C124.047 105.34 122.991 106.072 121.299 106.072Z" fill="#211743"/>
</g>
<g filter="url(#filter2_d_134_80)">
<rect x="156.5" y="84" width="161" height="35" rx="17.5" fill="white" shape-rendering="crispEdges"/>
<rect x="157" y="84.5" width="160" height="34" rx="17" stroke="#EDE0FF" stroke-dasharray="3 3" shape-rendering="crispEdges"/>
<path d="M177.452 97.6C179.636 97.6 180.956 98.704 180.956 100.528C180.956 102.352 179.636 103.456 177.452 103.456H175.376V106H174.176V97.6H177.452ZM177.416 102.412C178.952 102.412 179.756 101.728 179.756 100.528C179.756 99.328 178.952 98.644 177.416 98.644H175.376V102.412H177.416ZM185.252 106.072C183.344 106.072 181.94 104.716 181.94 102.82C181.94 100.924 183.344 99.58 185.252 99.58C187.16 99.58 188.552 100.924 188.552 102.82C188.552 104.716 187.16 106.072 185.252 106.072ZM185.252 105.064C186.476 105.064 187.388 104.176 187.388 102.82C187.388 101.464 186.476 100.588 185.252 100.588C184.028 100.588 183.104 101.464 183.104 102.82C183.104 104.176 184.028 105.064 185.252 105.064ZM191.969 106.072C190.913 106.072 189.869 105.748 189.341 105.328L189.821 104.416C190.361 104.8 191.225 105.076 192.053 105.076C193.121 105.076 193.565 104.752 193.565 104.212C193.565 102.784 189.545 104.02 189.545 101.488C189.545 100.348 190.565 99.58 192.197 99.58C193.025 99.58 193.961 99.796 194.513 100.156L194.021 101.068C193.445 100.696 192.809 100.564 192.185 100.564C191.177 100.564 190.685 100.936 190.685 101.44C190.685 102.94 194.717 101.716 194.717 104.188C194.717 105.34 193.661 106.072 191.969 106.072ZM199.372 104.8L199.732 105.628C199.384 105.928 198.856 106.072 198.34 106.072C197.056 106.072 196.324 105.364 196.324 104.08V100.588H195.244V99.64H196.324V98.248H197.476V99.64H199.3V100.588H197.476V104.032C197.476 104.716 197.836 105.1 198.472 105.1C198.808 105.1 199.132 104.992 199.372 104.8ZM200.6 103.204V102.208H203.828V103.204H200.6ZM205.602 106V97.096H206.754V106H205.602ZM211.269 99.58C213.009 99.58 213.993 100.42 213.993 102.16V106H212.901V105.16C212.517 105.736 211.809 106.072 210.813 106.072C209.373 106.072 208.461 105.304 208.461 104.2C208.461 103.18 209.121 102.34 211.017 102.34H212.841V102.112C212.841 101.14 212.277 100.576 211.137 100.576C210.381 100.576 209.613 100.84 209.121 101.26L208.641 100.396C209.301 99.868 210.249 99.58 211.269 99.58ZM211.005 105.184C211.869 105.184 212.553 104.788 212.841 104.056V103.168H211.065C209.925 103.168 209.601 103.612 209.601 104.152C209.601 104.788 210.129 105.184 211.005 105.184ZM220.901 99.64H222.053V106H220.961V105.04C220.493 105.7 219.701 106.072 218.801 106.072C217.157 106.072 216.065 105.172 216.065 103.3V99.64H217.217V103.168C217.217 104.416 217.841 105.04 218.933 105.04C220.133 105.04 220.901 104.296 220.901 102.928V99.64ZM227.642 99.58C229.19 99.58 230.282 100.468 230.282 102.34V106H229.13V102.472C229.13 101.224 228.506 100.612 227.414 100.612C226.19 100.612 225.398 101.344 225.398 102.724V106H224.246V99.64H225.35V100.6C225.818 99.952 226.634 99.58 227.642 99.58ZM235.221 106.072C233.265 106.072 231.861 104.716 231.861 102.82C231.861 100.924 233.265 99.58 235.221 99.58C236.361 99.58 237.309 100.048 237.813 100.936L236.937 101.5C236.529 100.876 235.905 100.588 235.209 100.588C233.961 100.588 233.025 101.464 233.025 102.82C233.025 104.2 233.961 105.064 235.209 105.064C235.905 105.064 236.529 104.776 236.937 104.152L237.813 104.704C237.309 105.592 236.361 106.072 235.221 106.072ZM242.619 99.58C244.167 99.58 245.259 100.468 245.259 102.34V106H244.107V102.472C244.107 101.224 243.483 100.612 242.391 100.612C241.167 100.612 240.375 101.344 240.375 102.724V106H239.223V97.096H240.375V100.54C240.855 99.928 241.647 99.58 242.619 99.58ZM251.189 98.416C250.745 98.416 250.409 98.092 250.409 97.672C250.409 97.252 250.745 96.916 251.189 96.916C251.633 96.916 251.969 97.24 251.969 97.648C251.969 98.08 251.645 98.416 251.189 98.416ZM250.613 106V99.64H251.765V106H250.613ZM257.181 104.8L257.541 105.628C257.193 105.928 256.665 106.072 256.149 106.072C254.865 106.072 254.133 105.364 254.133 104.08V100.588H253.053V99.64H254.133V98.248H255.285V99.64H257.109V100.588H255.285V104.032C255.285 104.716 255.645 105.1 256.281 105.1C256.617 105.1 256.941 104.992 257.181 104.8ZM264.471 102.856C264.471 102.952 264.459 103.096 264.447 103.204H259.287C259.431 104.32 260.331 105.064 261.591 105.064C262.335 105.064 262.959 104.812 263.427 104.296L264.063 105.04C263.487 105.712 262.611 106.072 261.555 106.072C259.503 106.072 258.135 104.716 258.135 102.82C258.135 100.936 259.491 99.58 261.327 99.58C263.163 99.58 264.471 100.9 264.471 102.856ZM261.327 100.552C260.223 100.552 259.407 101.296 259.287 102.376H263.367C263.247 101.308 262.443 100.552 261.327 100.552ZM267.175 100.708C267.583 99.964 268.375 99.58 269.491 99.58V100.696C269.395 100.684 269.311 100.684 269.227 100.684C267.991 100.684 267.223 101.44 267.223 102.832V106H266.071V99.64H267.175V100.708ZM273.215 99.58C274.955 99.58 275.939 100.42 275.939 102.16V106H274.847V105.16C274.463 105.736 273.755 106.072 272.759 106.072C271.319 106.072 270.407 105.304 270.407 104.2C270.407 103.18 271.067 102.34 272.963 102.34H274.787V102.112C274.787 101.14 274.223 100.576 273.083 100.576C272.327 100.576 271.559 100.84 271.067 101.26L270.587 100.396C271.247 99.868 272.195 99.58 273.215 99.58ZM272.951 105.184C273.815 105.184 274.499 104.788 274.787 104.056V103.168H273.011C271.871 103.168 271.547 103.612 271.547 104.152C271.547 104.788 272.075 105.184 272.951 105.184ZM281.287 104.8L281.647 105.628C281.299 105.928 280.771 106.072 280.255 106.072C278.971 106.072 278.239 105.364 278.239 104.08V100.588H277.159V99.64H278.239V98.248H279.391V99.64H281.215V100.588H279.391V104.032C279.391 104.716 279.751 105.1 280.387 105.1C280.723 105.1 281.047 104.992 281.287 104.8ZM283.615 98.416C283.171 98.416 282.835 98.092 282.835 97.672C282.835 97.252 283.171 96.916 283.615 96.916C284.059 96.916 284.395 97.24 284.395 97.648C284.395 98.08 284.071 98.416 283.615 98.416ZM283.039 106V99.64H284.191V106H283.039ZM289.115 106.072C287.207 106.072 285.803 104.716 285.803 102.82C285.803 100.924 287.207 99.58 289.115 99.58C291.023 99.58 292.415 100.924 292.415 102.82C292.415 104.716 291.023 106.072 289.115 106.072ZM289.115 105.064C290.339 105.064 291.251 104.176 291.251 102.82C291.251 101.464 290.339 100.588 289.115 100.588C287.891 100.588 286.967 101.464 286.967 102.82C286.967 104.176 287.891 105.064 289.115 105.064ZM297.404 99.58C298.952 99.58 300.044 100.468 300.044 102.34V106H298.892V102.472C298.892 101.224 298.268 100.612 297.176 100.612C295.952 100.612 295.16 101.344 295.16 102.724V106H294.008V99.64H295.112V100.6C295.58 99.952 296.396 99.58 297.404 99.58Z" fill="#211743"/>
</g>
<g filter="url(#filter3_d_134_80)">
<rect x="333.5" y="84" width="129" height="35" rx="17.5" fill="white" shape-rendering="crispEdges"/>
<rect x="334" y="84.5" width="128" height="34" rx="17" stroke="#EDE0FF" stroke-dasharray="3 3" shape-rendering="crispEdges"/>
<path d="M359.761 106H358.609L358.597 99.88L355.561 104.98H355.009L351.973 99.916V106H350.821V97.6H351.805L355.309 103.504L358.765 97.6H359.749L359.761 106ZM368.295 97.6H369.495L365.811 106H364.623L360.927 97.6H362.223L365.247 104.5L368.295 97.6ZM373.843 97.6C376.027 97.6 377.347 98.704 377.347 100.528C377.347 102.352 376.027 103.456 373.843 103.456H371.767V106H370.567V97.6H373.843ZM373.807 102.412C375.343 102.412 376.147 101.728 376.147 100.528C376.147 99.328 375.343 98.644 373.807 98.644H371.767V102.412H373.807ZM384.609 97.972C383.925 97.972 383.577 98.356 383.577 99.088V99.64H385.425V100.588H383.601V106H382.449V100.588H381.369V99.64H382.449V99.076C382.449 97.84 383.193 97.024 384.549 97.024C385.041 97.024 385.521 97.144 385.845 97.396L385.497 98.272C385.257 98.092 384.945 97.972 384.609 97.972ZM392.166 102.856C392.166 102.952 392.154 103.096 392.142 103.204H386.982C387.126 104.32 388.026 105.064 389.286 105.064C390.03 105.064 390.654 104.812 391.122 104.296L391.758 105.04C391.182 105.712 390.306 106.072 389.25 106.072C387.198 106.072 385.83 104.716 385.83 102.82C385.83 100.936 387.186 99.58 389.022 99.58C390.858 99.58 392.166 100.9 392.166 102.856ZM389.022 100.552C387.918 100.552 387.102 101.296 386.982 102.376H391.062C390.942 101.308 390.138 100.552 389.022 100.552ZM395.906 99.58C397.646 99.58 398.63 100.42 398.63 102.16V106H397.538V105.16C397.154 105.736 396.446 106.072 395.45 106.072C394.01 106.072 393.098 105.304 393.098 104.2C393.098 103.18 393.758 102.34 395.654 102.34H397.478V102.112C397.478 101.14 396.914 100.576 395.774 100.576C395.018 100.576 394.25 100.84 393.758 101.26L393.278 100.396C393.938 99.868 394.886 99.58 395.906 99.58ZM395.642 105.184C396.506 105.184 397.19 104.788 397.478 104.056V103.168H395.702C394.562 103.168 394.238 103.612 394.238 104.152C394.238 104.788 394.766 105.184 395.642 105.184ZM403.978 104.8L404.338 105.628C403.99 105.928 403.462 106.072 402.946 106.072C401.662 106.072 400.93 105.364 400.93 104.08V100.588H399.85V99.64H400.93V98.248H402.082V99.64H403.906V100.588H402.082V104.032C402.082 104.716 402.442 105.1 403.078 105.1C403.414 105.1 403.738 104.992 403.978 104.8ZM410.507 99.64H411.659V106H410.567V105.04C410.099 105.7 409.307 106.072 408.407 106.072C406.763 106.072 405.671 105.172 405.671 103.3V99.64H406.823V103.168C406.823 104.416 407.447 105.04 408.539 105.04C409.739 105.04 410.507 104.296 410.507 102.928V99.64ZM414.956 100.708C415.364 99.964 416.156 99.58 417.272 99.58V100.696C417.176 100.684 417.092 100.684 417.008 100.684C415.772 100.684 415.004 101.44 415.004 102.832V106H413.852V99.64H414.956V100.708ZM424.381 102.856C424.381 102.952 424.369 103.096 424.357 103.204H419.197C419.341 104.32 420.241 105.064 421.501 105.064C422.245 105.064 422.869 104.812 423.337 104.296L423.973 105.04C423.397 105.712 422.521 106.072 421.465 106.072C419.413 106.072 418.045 104.716 418.045 102.82C418.045 100.936 419.401 99.58 421.237 99.58C423.073 99.58 424.381 100.9 424.381 102.856ZM421.237 100.552C420.133 100.552 419.317 101.296 419.197 102.376H423.277C423.157 101.308 422.353 100.552 421.237 100.552ZM431.027 106.072C429.971 106.072 428.927 105.748 428.399 105.328L428.879 104.416C429.419 104.8 430.283 105.076 431.111 105.076C432.179 105.076 432.623 104.752 432.623 104.212C432.623 102.784 428.603 104.02 428.603 101.488C428.603 100.348 429.623 99.58 431.255 99.58C432.083 99.58 433.019 99.796 433.571 100.156L433.079 101.068C432.503 100.696 431.867 100.564 431.243 100.564C430.235 100.564 429.743 100.936 429.743 101.44C429.743 102.94 433.775 101.716 433.775 104.188C433.775 105.34 432.719 106.072 431.027 106.072ZM440.963 102.856C440.963 102.952 440.951 103.096 440.939 103.204H435.779C435.923 104.32 436.823 105.064 438.083 105.064C438.827 105.064 439.451 104.812 439.919 104.296L440.555 105.04C439.979 105.712 439.103 106.072 438.047 106.072C435.995 106.072 434.627 104.716 434.627 102.82C434.627 100.936 435.983 99.58 437.819 99.58C439.655 99.58 440.963 100.9 440.963 102.856ZM437.819 100.552C436.715 100.552 435.899 101.296 435.779 102.376H439.859C439.739 101.308 438.935 100.552 437.819 100.552ZM445.779 104.8L446.139 105.628C445.791 105.928 445.263 106.072 444.747 106.072C443.463 106.072 442.731 105.364 442.731 104.08V100.588H441.651V99.64H442.731V98.248H443.883V99.64H445.707V100.588H443.883V104.032C443.883 104.716 444.243 105.1 444.879 105.1C445.215 105.1 445.539 104.992 445.779 104.8Z" fill="#211743"/>
</g>
<g filter="url(#filter4_d_134_80)">
<rect x="478.5" y="84" width="124" height="35" rx="17.5" fill="white" shape-rendering="crispEdges"/>
<rect x="479" y="84.5" width="123" height="34" rx="17" stroke="#EDE0FF" stroke-dasharray="3 3" shape-rendering="crispEdges"/>
<path d="M496.086 106V97.6H499.626C502.326 97.6 504.162 99.304 504.162 101.8C504.162 104.296 502.326 106 499.626 106H496.086ZM497.286 104.956H499.554C501.63 104.956 502.962 103.684 502.962 101.8C502.962 99.916 501.63 98.644 499.554 98.644H497.286V104.956ZM511.58 102.856C511.58 102.952 511.568 103.096 511.556 103.204H506.396C506.54 104.32 507.44 105.064 508.7 105.064C509.444 105.064 510.068 104.812 510.536 104.296L511.172 105.04C510.596 105.712 509.72 106.072 508.664 106.072C506.612 106.072 505.244 104.716 505.244 102.82C505.244 100.936 506.6 99.58 508.436 99.58C510.272 99.58 511.58 100.9 511.58 102.856ZM508.436 100.552C507.332 100.552 506.516 101.296 506.396 102.376H510.476C510.356 101.308 509.552 100.552 508.436 100.552ZM521.136 99.58C522.684 99.58 523.74 100.468 523.74 102.34V106H522.588V102.472C522.588 101.224 521.988 100.612 520.944 100.612C519.792 100.612 519.036 101.344 519.036 102.724V106H517.884V102.472C517.884 101.224 517.284 100.612 516.24 100.612C515.088 100.612 514.332 101.344 514.332 102.724V106H513.18V99.64H514.284V100.588C514.74 99.94 515.52 99.58 516.48 99.58C517.452 99.58 518.268 99.964 518.688 100.756C519.168 100.036 520.056 99.58 521.136 99.58ZM528.619 106.072C526.711 106.072 525.307 104.716 525.307 102.82C525.307 100.924 526.711 99.58 528.619 99.58C530.527 99.58 531.919 100.924 531.919 102.82C531.919 104.716 530.527 106.072 528.619 106.072ZM528.619 105.064C529.843 105.064 530.755 104.176 530.755 102.82C530.755 101.464 529.843 100.588 528.619 100.588C527.395 100.588 526.471 101.464 526.471 102.82C526.471 104.176 527.395 105.064 528.619 105.064ZM538.559 106.072C537.503 106.072 536.459 105.748 535.931 105.328L536.411 104.416C536.951 104.8 537.815 105.076 538.643 105.076C539.711 105.076 540.155 104.752 540.155 104.212C540.155 102.784 536.135 104.02 536.135 101.488C536.135 100.348 537.155 99.58 538.787 99.58C539.615 99.58 540.551 99.796 541.103 100.156L540.611 101.068C540.035 100.696 539.399 100.564 538.775 100.564C537.767 100.564 537.275 100.936 537.275 101.44C537.275 102.94 541.307 101.716 541.307 104.188C541.307 105.34 540.251 106.072 538.559 106.072ZM548.494 102.856C548.494 102.952 548.482 103.096 548.47 103.204H543.31C543.454 104.32 544.354 105.064 545.614 105.064C546.358 105.064 546.982 104.812 547.45 104.296L548.086 105.04C547.51 105.712 546.634 106.072 545.578 106.072C543.526 106.072 542.158 104.716 542.158 102.82C542.158 100.936 543.514 99.58 545.35 99.58C547.186 99.58 548.494 100.9 548.494 102.856ZM545.35 100.552C544.246 100.552 543.43 101.296 543.31 102.376H547.39C547.27 101.308 546.466 100.552 545.35 100.552ZM551.918 106.072C550.862 106.072 549.818 105.748 549.29 105.328L549.77 104.416C550.31 104.8 551.174 105.076 552.002 105.076C553.07 105.076 553.514 104.752 553.514 104.212C553.514 102.784 549.494 104.02 549.494 101.488C549.494 100.348 550.514 99.58 552.146 99.58C552.974 99.58 553.91 99.796 554.462 100.156L553.97 101.068C553.394 100.696 552.758 100.564 552.134 100.564C551.126 100.564 550.634 100.936 550.634 101.44C550.634 102.94 554.666 101.716 554.666 104.188C554.666 105.34 553.61 106.072 551.918 106.072ZM557.93 106.072C556.874 106.072 555.83 105.748 555.302 105.328L555.782 104.416C556.322 104.8 557.186 105.076 558.014 105.076C559.082 105.076 559.526 104.752 559.526 104.212C559.526 102.784 555.506 104.02 555.506 101.488C555.506 100.348 556.526 99.58 558.158 99.58C558.986 99.58 559.922 99.796 560.474 100.156L559.982 101.068C559.406 100.696 558.77 100.564 558.146 100.564C557.138 100.564 556.646 100.936 556.646 101.44C556.646 102.94 560.678 101.716 560.678 104.188C560.678 105.34 559.622 106.072 557.93 106.072ZM562.693 98.416C562.249 98.416 561.913 98.092 561.913 97.672C561.913 97.252 562.249 96.916 562.693 96.916C563.137 96.916 563.473 97.24 563.473 97.648C563.473 98.08 563.149 98.416 562.693 98.416ZM562.117 106V99.64H563.269V106H562.117ZM568.193 106.072C566.285 106.072 564.881 104.716 564.881 102.82C564.881 100.924 566.285 99.58 568.193 99.58C570.101 99.58 571.493 100.924 571.493 102.82C571.493 104.716 570.101 106.072 568.193 106.072ZM568.193 105.064C569.417 105.064 570.329 104.176 570.329 102.82C570.329 101.464 569.417 100.588 568.193 100.588C566.969 100.588 566.045 101.464 566.045 102.82C566.045 104.176 566.969 105.064 568.193 105.064ZM576.482 99.58C578.03 99.58 579.122 100.468 579.122 102.34V106H577.97V102.472C577.97 101.224 577.346 100.612 576.254 100.612C575.03 100.612 574.238 101.344 574.238 102.724V106H573.086V99.64H574.19V100.6C574.658 99.952 575.474 99.58 576.482 99.58ZM583.078 106.072C582.022 106.072 580.978 105.748 580.45 105.328L580.93 104.416C581.47 104.8 582.334 105.076 583.162 105.076C584.23 105.076 584.674 104.752 584.674 104.212C584.674 102.784 580.654 104.02 580.654 101.488C580.654 100.348 581.674 99.58 583.306 99.58C584.134 99.58 585.07 99.796 585.622 100.156L585.13 101.068C584.554 100.696 583.918 100.564 583.294 100.564C582.286 100.564 581.794 100.936 581.794 101.44C581.794 102.94 585.826 101.716 585.826 104.188C585.826 105.34 584.77 106.072 583.078 106.072Z" fill="#211743"/>
</g>
<g filter="url(#filter5_d_134_80)">
<rect x="-156" y="131" width="167" height="35" rx="17.5" fill="white" shape-rendering="crispEdges"/>
<rect x="-155.5" y="131.5" width="166" height="34" rx="17" stroke="#EDE0FF" stroke-dasharray="3 3" shape-rendering="crispEdges"/>
</g>
<g filter="url(#filter6_d_134_80)">
<rect x="27" y="131" width="167" height="35" rx="17.5" fill="white" shape-rendering="crispEdges"/>
<rect x="27.5" y="131.5" width="166" height="34" rx="17" stroke="#EDE0FF" stroke-dasharray="3 3" shape-rendering="crispEdges"/>
<path d="M50.1171 148.644C51.0651 148.908 51.6891 149.616 51.6891 150.732C51.6891 152.172 50.5971 153 48.4731 153H44.4651V144.6H48.2331C50.1651 144.6 51.2451 145.416 51.2451 146.772C51.2451 147.684 50.7771 148.32 50.1171 148.644ZM48.1251 145.572H45.6651V148.26H48.1251C49.3491 148.26 50.0451 147.804 50.0451 146.916C50.0451 146.028 49.3491 145.572 48.1251 145.572ZM48.4251 152.028C49.7571 152.028 50.4771 151.608 50.4771 150.636C50.4771 149.664 49.7571 149.232 48.4251 149.232H45.6651V152.028H48.4251ZM58.1551 146.64H59.3071V153H58.2151V152.04C57.7471 152.7 56.9551 153.072 56.0551 153.072C54.4111 153.072 53.3191 152.172 53.3191 150.3V146.64H54.4711V150.168C54.4711 151.416 55.0951 152.04 56.1871 152.04C57.3871 152.04 58.1551 151.296 58.1551 149.928V146.64ZM62.0762 145.416C61.6322 145.416 61.2962 145.092 61.2962 144.672C61.2962 144.252 61.6322 143.916 62.0762 143.916C62.5202 143.916 62.8562 144.24 62.8562 144.648C62.8562 145.08 62.5322 145.416 62.0762 145.416ZM61.5002 153V146.64H62.6522V153H61.5002ZM64.8518 153V144.096H66.0038V153H64.8518ZM73.0513 144.096H74.2033V153H73.0993V151.992C72.5833 152.712 71.7673 153.072 70.8313 153.072C68.9713 153.072 67.6153 151.764 67.6153 149.82C67.6153 147.876 68.9713 146.58 70.8313 146.58C71.7313 146.58 72.5233 146.916 73.0513 147.6V144.096ZM70.9273 152.064C72.1393 152.064 73.0633 151.176 73.0633 149.82C73.0633 148.464 72.1393 147.588 70.9273 147.588C69.7033 147.588 68.7793 148.464 68.7793 149.82C68.7793 151.176 69.7033 152.064 70.9273 152.064ZM76.959 145.416C76.515 145.416 76.179 145.092 76.179 144.672C76.179 144.252 76.515 143.916 76.959 143.916C77.403 143.916 77.739 144.24 77.739 144.648C77.739 145.08 77.415 145.416 76.959 145.416ZM76.383 153V146.64H77.535V153H76.383ZM83.1306 146.58C84.6786 146.58 85.7706 147.468 85.7706 149.34V153H84.6186V149.472C84.6186 148.224 83.9946 147.612 82.9026 147.612C81.6786 147.612 80.8866 148.344 80.8866 149.724V153H79.7346V146.64H80.8386V147.6C81.3066 146.952 82.1226 146.58 83.1306 146.58ZM92.9297 146.64H94.0217V152.136C94.0217 154.38 92.8817 155.4 90.7217 155.4C89.5577 155.4 88.3817 155.076 87.6857 154.452L88.2377 153.564C88.8257 154.068 89.7497 154.392 90.6857 154.392C92.1857 154.392 92.8697 153.696 92.8697 152.256V151.752C92.3177 152.412 91.4897 152.736 90.5777 152.736C88.7417 152.736 87.3497 151.488 87.3497 149.652C87.3497 147.816 88.7417 146.58 90.5777 146.58C91.5257 146.58 92.3897 146.928 92.9297 147.624V146.64ZM90.7097 151.728C91.9817 151.728 92.8937 150.876 92.8937 149.652C92.8937 148.416 91.9817 147.588 90.7097 147.588C89.4257 147.588 88.5137 148.416 88.5137 149.652C88.5137 150.876 89.4257 151.728 90.7097 151.728ZM102.218 153.072C100.262 153.072 98.8575 151.716 98.8575 149.82C98.8575 147.924 100.262 146.58 102.218 146.58C103.358 146.58 104.306 147.048 104.81 147.936L103.934 148.5C103.526 147.876 102.902 147.588 102.206 147.588C100.958 147.588 100.022 148.464 100.022 149.82C100.022 151.2 100.958 152.064 102.206 152.064C102.902 152.064 103.526 151.776 103.934 151.152L104.81 151.704C104.306 152.592 103.358 153.072 102.218 153.072ZM108.931 153.072C107.023 153.072 105.619 151.716 105.619 149.82C105.619 147.924 107.023 146.58 108.931 146.58C110.839 146.58 112.231 147.924 112.231 149.82C112.231 151.716 110.839 153.072 108.931 153.072ZM108.931 152.064C110.155 152.064 111.067 151.176 111.067 149.82C111.067 148.464 110.155 147.588 108.931 147.588C107.707 147.588 106.783 148.464 106.783 149.82C106.783 151.176 107.707 152.064 108.931 152.064ZM114.928 147.708C115.336 146.964 116.128 146.58 117.244 146.58V147.696C117.148 147.684 117.064 147.684 116.98 147.684C115.744 147.684 114.976 148.44 114.976 149.832V153H113.824V146.64H114.928V147.708ZM124.354 149.856C124.354 149.952 124.342 150.096 124.33 150.204H119.17C119.314 151.32 120.214 152.064 121.474 152.064C122.218 152.064 122.842 151.812 123.31 151.296L123.946 152.04C123.37 152.712 122.494 153.072 121.438 153.072C119.386 153.072 118.018 151.716 118.018 149.82C118.018 147.936 119.374 146.58 121.21 146.58C123.046 146.58 124.354 147.9 124.354 149.856ZM121.21 147.552C120.106 147.552 119.29 148.296 119.17 149.376H123.25C123.13 148.308 122.326 147.552 121.21 147.552ZM131.504 144.972C130.82 144.972 130.472 145.356 130.472 146.088V146.64H132.32V147.588H130.496V153H129.344V147.588H128.264V146.64H129.344V146.076C129.344 144.84 130.088 144.024 131.444 144.024C131.936 144.024 132.416 144.144 132.74 144.396L132.392 145.272C132.152 145.092 131.84 144.972 131.504 144.972ZM139.061 149.856C139.061 149.952 139.049 150.096 139.037 150.204H133.877C134.021 151.32 134.921 152.064 136.181 152.064C136.925 152.064 137.549 151.812 138.017 151.296L138.653 152.04C138.077 152.712 137.201 153.072 136.145 153.072C134.093 153.072 132.725 151.716 132.725 149.82C132.725 147.936 134.081 146.58 135.917 146.58C137.753 146.58 139.061 147.9 139.061 149.856ZM135.917 147.552C134.813 147.552 133.997 148.296 133.877 149.376H137.957C137.837 148.308 137.033 147.552 135.917 147.552ZM142.801 146.58C144.541 146.58 145.525 147.42 145.525 149.16V153H144.433V152.16C144.049 152.736 143.341 153.072 142.345 153.072C140.905 153.072 139.993 152.304 139.993 151.2C139.993 150.18 140.653 149.34 142.549 149.34H144.373V149.112C144.373 148.14 143.809 147.576 142.669 147.576C141.913 147.576 141.145 147.84 140.653 148.26L140.173 147.396C140.833 146.868 141.781 146.58 142.801 146.58ZM142.537 152.184C143.401 152.184 144.085 151.788 144.373 151.056V150.168H142.597C141.457 150.168 141.133 150.612 141.133 151.152C141.133 151.788 141.661 152.184 142.537 152.184ZM150.872 151.8L151.232 152.628C150.884 152.928 150.356 153.072 149.84 153.072C148.556 153.072 147.824 152.364 147.824 151.08V147.588H146.744V146.64H147.824V145.248H148.976V146.64H150.8V147.588H148.976V151.032C148.976 151.716 149.336 152.1 149.972 152.1C150.308 152.1 150.632 151.992 150.872 151.8ZM157.401 146.64H158.553V153H157.461V152.04C156.993 152.7 156.201 153.072 155.301 153.072C153.657 153.072 152.565 152.172 152.565 150.3V146.64H153.717V150.168C153.717 151.416 154.341 152.04 155.433 152.04C156.633 152.04 157.401 151.296 157.401 149.928V146.64ZM161.85 147.708C162.258 146.964 163.05 146.58 164.166 146.58V147.696C164.07 147.684 163.986 147.684 163.902 147.684C162.666 147.684 161.898 148.44 161.898 149.832V153H160.746V146.64H161.85V147.708ZM171.276 149.856C171.276 149.952 171.264 150.096 171.252 150.204H166.092C166.236 151.32 167.136 152.064 168.396 152.064C169.14 152.064 169.764 151.812 170.232 151.296L170.868 152.04C170.292 152.712 169.416 153.072 168.36 153.072C166.308 153.072 164.94 151.716 164.94 149.82C164.94 147.936 166.296 146.58 168.132 146.58C169.968 146.58 171.276 147.9 171.276 149.856ZM168.132 147.552C167.028 147.552 166.212 148.296 166.092 149.376H170.172C170.052 148.308 169.248 147.552 168.132 147.552ZM174.699 153.072C173.643 153.072 172.599 152.748 172.071 152.328L172.551 151.416C173.091 151.8 173.955 152.076 174.783 152.076C175.851 152.076 176.295 151.752 176.295 151.212C176.295 149.784 172.275 151.02 172.275 148.488C172.275 147.348 173.295 146.58 174.927 146.58C175.755 146.58 176.691 146.796 177.243 147.156L176.751 148.068C176.175 147.696 175.539 147.564 174.915 147.564C173.907 147.564 173.415 147.936 173.415 148.44C173.415 149.94 177.447 148.716 177.447 151.188C177.447 152.34 176.391 153.072 174.699 153.072Z" fill="#211743"/>
</g>
<g filter="url(#filter7_d_134_80)">
<rect x="210" y="131" width="109" height="35" rx="17.5" fill="white" shape-rendering="crispEdges"/>
<rect x="210.5" y="131.5" width="108" height="34" rx="17" stroke="#EDE0FF" stroke-dasharray="3 3" shape-rendering="crispEdges"/>
<path d="M227.692 153V144.6H231.232C233.932 144.6 235.768 146.304 235.768 148.8C235.768 151.296 233.932 153 231.232 153H227.692ZM228.892 151.956H231.16C233.236 151.956 234.568 150.684 234.568 148.8C234.568 146.916 233.236 145.644 231.16 145.644H228.892V151.956ZM243.186 149.856C243.186 149.952 243.174 150.096 243.162 150.204H238.002C238.146 151.32 239.046 152.064 240.306 152.064C241.05 152.064 241.674 151.812 242.142 151.296L242.778 152.04C242.202 152.712 241.326 153.072 240.27 153.072C238.218 153.072 236.85 151.716 236.85 149.82C236.85 147.936 238.206 146.58 240.042 146.58C241.878 146.58 243.186 147.9 243.186 149.856ZM240.042 147.552C238.938 147.552 238.122 148.296 238.002 149.376H242.082C241.962 148.308 241.158 147.552 240.042 147.552ZM248.157 146.58C250.017 146.58 251.373 147.876 251.373 149.82C251.373 151.776 250.017 153.072 248.157 153.072C247.257 153.072 246.465 152.724 245.937 152.04V155.328H244.785V146.64H245.889V147.648C246.405 146.94 247.221 146.58 248.157 146.58ZM248.061 152.064C249.285 152.064 250.209 151.176 250.209 149.82C250.209 148.476 249.285 147.588 248.061 147.588C246.849 147.588 245.925 148.476 245.925 149.82C245.925 151.176 246.849 152.064 248.061 152.064ZM252.965 153V144.096H254.117V153H252.965ZM259.041 153.072C257.133 153.072 255.729 151.716 255.729 149.82C255.729 147.924 257.133 146.58 259.041 146.58C260.949 146.58 262.341 147.924 262.341 149.82C262.341 151.716 260.949 153.072 259.041 153.072ZM259.041 152.064C260.265 152.064 261.177 151.176 261.177 149.82C261.177 148.464 260.265 147.588 259.041 147.588C257.817 147.588 256.893 148.464 256.893 149.82C256.893 151.176 257.817 152.064 259.041 152.064ZM268.258 146.64H269.386L266.302 153.636C265.738 154.98 265.006 155.4 264.034 155.4C263.422 155.4 262.798 155.196 262.402 154.812L262.894 153.948C263.206 154.248 263.602 154.416 264.034 154.416C264.586 154.416 264.934 154.164 265.246 153.432L265.45 152.988L262.642 146.64H263.842L266.062 151.728L268.258 146.64ZM278.417 146.58C279.965 146.58 281.021 147.468 281.021 149.34V153H279.869V149.472C279.869 148.224 279.269 147.612 278.225 147.612C277.073 147.612 276.317 148.344 276.317 149.724V153H275.165V149.472C275.165 148.224 274.565 147.612 273.521 147.612C272.369 147.612 271.613 148.344 271.613 149.724V153H270.461V146.64H271.565V147.588C272.021 146.94 272.801 146.58 273.761 146.58C274.733 146.58 275.549 146.964 275.969 147.756C276.449 147.036 277.337 146.58 278.417 146.58ZM288.924 149.856C288.924 149.952 288.912 150.096 288.9 150.204H283.74C283.884 151.32 284.784 152.064 286.044 152.064C286.788 152.064 287.412 151.812 287.88 151.296L288.516 152.04C287.94 152.712 287.064 153.072 286.008 153.072C283.956 153.072 282.588 151.716 282.588 149.82C282.588 147.936 283.944 146.58 285.78 146.58C287.616 146.58 288.924 147.9 288.924 149.856ZM285.78 147.552C284.676 147.552 283.86 148.296 283.74 149.376H287.82C287.7 148.308 286.896 147.552 285.78 147.552ZM293.92 146.58C295.468 146.58 296.56 147.468 296.56 149.34V153H295.408V149.472C295.408 148.224 294.784 147.612 293.692 147.612C292.468 147.612 291.676 148.344 291.676 149.724V153H290.524V146.64H291.628V147.6C292.096 146.952 292.912 146.58 293.92 146.58ZM301.908 151.8L302.268 152.628C301.92 152.928 301.392 153.072 300.876 153.072C299.592 153.072 298.86 152.364 298.86 151.08V147.588H297.78V146.64H298.86V145.248H300.012V146.64H301.836V147.588H300.012V151.032C300.012 151.716 300.372 152.1 301.008 152.1C301.344 152.1 301.668 151.992 301.908 151.8Z" fill="#211743"/>
</g>
<g filter="url(#filter8_d_134_80)">
<rect x="335" y="131" width="155" height="35" rx="17.5" fill="white" shape-rendering="crispEdges"/>
<rect x="335.5" y="131.5" width="154" height="34" rx="17" stroke="#EDE0FF" stroke-dasharray="3 3" shape-rendering="crispEdges"/>
<path d="M356.48 153.096C353.9 153.096 352.004 151.26 352.004 148.8C352.004 146.34 353.9 144.504 356.48 144.504C359.036 144.504 360.932 146.328 360.932 148.8C360.932 151.272 359.036 153.096 356.48 153.096ZM356.48 152.028C358.34 152.028 359.732 150.66 359.732 148.8C359.732 146.94 358.34 145.572 356.48 145.572C354.596 145.572 353.204 146.94 353.204 148.8C353.204 150.66 354.596 152.028 356.48 152.028ZM365.994 146.58C367.542 146.58 368.634 147.468 368.634 149.34V153H367.482V149.472C367.482 148.224 366.858 147.612 365.766 147.612C364.542 147.612 363.75 148.344 363.75 149.724V153H362.598V146.64H363.702V147.6C364.17 146.952 364.986 146.58 365.994 146.58ZM375.793 146.64H376.885V152.136C376.885 154.38 375.745 155.4 373.585 155.4C372.421 155.4 371.245 155.076 370.549 154.452L371.101 153.564C371.689 154.068 372.613 154.392 373.549 154.392C375.049 154.392 375.733 153.696 375.733 152.256V151.752C375.181 152.412 374.353 152.736 373.441 152.736C371.605 152.736 370.213 151.488 370.213 149.652C370.213 147.816 371.605 146.58 373.441 146.58C374.389 146.58 375.253 146.928 375.793 147.624V146.64ZM373.573 151.728C374.845 151.728 375.757 150.876 375.757 149.652C375.757 148.416 374.845 147.588 373.573 147.588C372.289 147.588 371.377 148.416 371.377 149.652C371.377 150.876 372.289 151.728 373.573 151.728ZM381.81 153.072C379.902 153.072 378.498 151.716 378.498 149.82C378.498 147.924 379.902 146.58 381.81 146.58C383.718 146.58 385.11 147.924 385.11 149.82C385.11 151.716 383.718 153.072 381.81 153.072ZM381.81 152.064C383.034 152.064 383.946 151.176 383.946 149.82C383.946 148.464 383.034 147.588 381.81 147.588C380.586 147.588 379.662 148.464 379.662 149.82C379.662 151.176 380.586 152.064 381.81 152.064ZM387.279 145.416C386.835 145.416 386.499 145.092 386.499 144.672C386.499 144.252 386.835 143.916 387.279 143.916C387.723 143.916 388.059 144.24 388.059 144.648C388.059 145.08 387.735 145.416 387.279 145.416ZM386.703 153V146.64H387.855V153H386.703ZM393.451 146.58C394.999 146.58 396.091 147.468 396.091 149.34V153H394.939V149.472C394.939 148.224 394.315 147.612 393.223 147.612C391.999 147.612 391.207 148.344 391.207 149.724V153H390.055V146.64H391.159V147.6C391.627 146.952 392.443 146.58 393.451 146.58ZM403.25 146.64H404.342V152.136C404.342 154.38 403.202 155.4 401.042 155.4C399.878 155.4 398.702 155.076 398.006 154.452L398.558 153.564C399.146 154.068 400.07 154.392 401.006 154.392C402.506 154.392 403.19 153.696 403.19 152.256V151.752C402.638 152.412 401.81 152.736 400.898 152.736C399.062 152.736 397.67 151.488 397.67 149.652C397.67 147.816 399.062 146.58 400.898 146.58C401.846 146.58 402.71 146.928 403.25 147.624V146.64ZM401.03 151.728C402.302 151.728 403.214 150.876 403.214 149.652C403.214 148.416 402.302 147.588 401.03 147.588C399.746 147.588 398.834 148.416 398.834 149.652C398.834 150.876 399.746 151.728 401.03 151.728ZM418.022 153.084L418.586 153.768C418.046 154.404 417.314 154.752 416.474 154.752C415.418 154.752 414.59 154.296 413.414 153.084C411.002 152.952 409.25 151.164 409.25 148.8C409.25 146.34 411.146 144.504 413.726 144.504C416.282 144.504 418.178 146.328 418.178 148.8C418.178 150.888 416.834 152.508 414.878 152.964C415.442 153.564 415.946 153.804 416.486 153.804C417.086 153.804 417.59 153.564 418.022 153.084ZM410.45 148.8C410.45 150.648 411.842 152.028 413.726 152.028C415.586 152.028 416.978 150.648 416.978 148.8C416.978 146.952 415.586 145.572 413.726 145.572C411.842 145.572 410.45 146.952 410.45 148.8ZM426.171 153L425.247 150.9H420.783L419.859 153H418.623L422.427 144.6H423.615L427.431 153H426.171ZM421.203 149.94H424.827L423.015 145.824L421.203 149.94ZM434.954 151.8L435.314 152.628C434.966 152.928 434.438 153.072 433.922 153.072C432.638 153.072 431.906 152.364 431.906 151.08V147.588H430.826V146.64H431.906V145.248H433.058V146.64H434.882V147.588H433.058V151.032C433.058 151.716 433.418 152.1 434.054 152.1C434.39 152.1 434.714 151.992 434.954 151.8ZM442.244 149.856C442.244 149.952 442.232 150.096 442.22 150.204H437.06C437.204 151.32 438.104 152.064 439.364 152.064C440.108 152.064 440.732 151.812 441.2 151.296L441.836 152.04C441.26 152.712 440.384 153.072 439.328 153.072C437.276 153.072 435.908 151.716 435.908 149.82C435.908 147.936 437.264 146.58 439.1 146.58C440.936 146.58 442.244 147.9 442.244 149.856ZM439.1 147.552C437.996 147.552 437.18 148.296 437.06 149.376H441.14C441.02 148.308 440.216 147.552 439.1 147.552ZM445.668 153.072C444.612 153.072 443.568 152.748 443.04 152.328L443.52 151.416C444.06 151.8 444.924 152.076 445.752 152.076C446.82 152.076 447.264 151.752 447.264 151.212C447.264 149.784 443.244 151.02 443.244 148.488C443.244 147.348 444.264 146.58 445.896 146.58C446.724 146.58 447.66 146.796 448.212 147.156L447.72 148.068C447.144 147.696 446.508 147.564 445.884 147.564C444.876 147.564 444.384 147.936 444.384 148.44C444.384 149.94 448.416 148.716 448.416 151.188C448.416 152.34 447.36 153.072 445.668 153.072ZM453.072 151.8L453.432 152.628C453.084 152.928 452.556 153.072 452.04 153.072C450.756 153.072 450.024 152.364 450.024 151.08V147.588H448.944V146.64H450.024V145.248H451.176V146.64H453V147.588H451.176V151.032C451.176 151.716 451.536 152.1 452.172 152.1C452.508 152.1 452.832 151.992 453.072 151.8ZM455.4 145.416C454.956 145.416 454.62 145.092 454.62 144.672C454.62 144.252 454.956 143.916 455.4 143.916C455.844 143.916 456.18 144.24 456.18 144.648C456.18 145.08 455.856 145.416 455.4 145.416ZM454.824 153V146.64H455.976V153H454.824ZM461.572 146.58C463.12 146.58 464.212 147.468 464.212 149.34V153H463.06V149.472C463.06 148.224 462.436 147.612 461.344 147.612C460.12 147.612 459.328 148.344 459.328 149.724V153H458.176V146.64H459.28V147.6C459.748 146.952 460.564 146.58 461.572 146.58ZM471.371 146.64H472.463V152.136C472.463 154.38 471.323 155.4 469.163 155.4C467.999 155.4 466.823 155.076 466.127 154.452L466.679 153.564C467.267 154.068 468.191 154.392 469.127 154.392C470.627 154.392 471.311 153.696 471.311 152.256V151.752C470.759 152.412 469.931 152.736 469.019 152.736C467.183 152.736 465.791 151.488 465.791 149.652C465.791 147.816 467.183 146.58 469.019 146.58C469.967 146.58 470.831 146.928 471.371 147.624V146.64ZM469.151 151.728C470.423 151.728 471.335 150.876 471.335 149.652C471.335 148.416 470.423 147.588 469.151 147.588C467.867 147.588 466.955 148.416 466.955 149.652C466.955 150.876 467.867 151.728 469.151 151.728Z" fill="#211743"/>
</g>
<g filter="url(#filter9_d_134_80)">
<rect x="506" y="131" width="127" height="35" rx="17.5" fill="white" shape-rendering="crispEdges"/>
<rect x="506.5" y="131.5" width="126" height="34" rx="17" stroke="#EDE0FF" stroke-dasharray="3 3" shape-rendering="crispEdges"/>
</g>
</g>
<defs>
<filter id="filter0_d_134_80" x="-141.5" y="72" width="169" height="67" filterUnits="userSpaceOnUse" color-interpolation-filters="sRGB">
<feFlood flood-opacity="0" result="BackgroundImageFix"/>
<feColorMatrix in="SourceAlpha" type="matrix" values="0 0 0 0 0 0 0 0 0 0 0 0 0 0 0 0 0 0 127 0" result="hardAlpha"/>
<feOffset dy="4"/>
<feGaussianBlur stdDeviation="8"/>
<feComposite in2="hardAlpha" operator="out"/>
<feColorMatrix type="matrix" values="0 0 0 0 0 0 0 0 0 0 0 0 0 0 0 0 0 0 0.06 0"/>
<feBlend mode="normal" in2="BackgroundImageFix" result="effect1_dropShadow_134_80"/>
<feBlend mode="normal" in="SourceGraphic" in2="effect1_dropShadow_134_80" result="shape"/>
</filter>
<filter id="filter1_d_134_80" x="11.5" y="72" width="145" height="67" filterUnits="userSpaceOnUse" color-interpolation-filters="sRGB">
<feFlood flood-opacity="0" result="BackgroundImageFix"/>
<feColorMatrix in="SourceAlpha" type="matrix" values="0 0 0 0 0 0 0 0 0 0 0 0 0 0 0 0 0 0 127 0" result="hardAlpha"/>
<feOffset dy="4"/>
<feGaussianBlur stdDeviation="8"/>
<feComposite in2="hardAlpha" operator="out"/>
<feColorMatrix type="matrix" values="0 0 0 0 0 0 0 0 0 0 0 0 0 0 0 0 0 0 0.06 0"/>
<feBlend mode="normal" in2="BackgroundImageFix" result="effect1_dropShadow_134_80"/>
<feBlend mode="normal" in="SourceGraphic" in2="effect1_dropShadow_134_80" result="shape"/>
</filter>
<filter id="filter2_d_134_80" x="140.5" y="72" width="193" height="67" filterUnits="userSpaceOnUse" color-interpolation-filters="sRGB">
<feFlood flood-opacity="0" result="BackgroundImageFix"/>
<feColorMatrix in="SourceAlpha" type="matrix" values="0 0 0 0 0 0 0 0 0 0 0 0 0 0 0 0 0 0 127 0" result="hardAlpha"/>
<feOffset dy="4"/>
<feGaussianBlur stdDeviation="8"/>
<feComposite in2="hardAlpha" operator="out"/>
<feColorMatrix type="matrix" values="0 0 0 0 0 0 0 0 0 0 0 0 0 0 0 0 0 0 0.06 0"/>
<feBlend mode="normal" in2="BackgroundImageFix" result="effect1_dropShadow_134_80"/>
<feBlend mode="normal" in="SourceGraphic" in2="effect1_dropShadow_134_80" result="shape"/>
</filter>
<filter id="filter3_d_134_80" x="317.5" y="72" width="161" height="67" filterUnits="userSpaceOnUse" color-interpolation-filters="sRGB">
<feFlood flood-opacity="0" result="BackgroundImageFix"/>
<feColorMatrix in="SourceAlpha" type="matrix" values="0 0 0 0 0 0 0 0 0 0 0 0 0 0 0 0 0 0 127 0" result="hardAlpha"/>
<feOffset dy="4"/>
<feGaussianBlur stdDeviation="8"/>
<feComposite in2="hardAlpha" operator="out"/>
<feColorMatrix type="matrix" values="0 0 0 0 0 0 0 0 0 0 0 0 0 0 0 0 0 0 0.06 0"/>
<feBlend mode="normal" in2="BackgroundImageFix" result="effect1_dropShadow_134_80"/>
<feBlend mode="normal" in="SourceGraphic" in2="effect1_dropShadow_134_80" result="shape"/>
</filter>
<filter id="filter4_d_134_80" x="462.5" y="72" width="156" height="67" filterUnits="userSpaceOnUse" color-interpolation-filters="sRGB">
<feFlood flood-opacity="0" result="BackgroundImageFix"/>
<feColorMatrix in="SourceAlpha" type="matrix" values="0 0 0 0 0 0 0 0 0 0 0 0 0 0 0 0 0 0 127 0" result="hardAlpha"/>
<feOffset dy="4"/>
<feGaussianBlur stdDeviation="8"/>
<feComposite in2="hardAlpha" operator="out"/>
<feColorMatrix type="matrix" values="0 0 0 0 0 0 0 0 0 0 0 0 0 0 0 0 0 0 0.06 0"/>
<feBlend mode="normal" in2="BackgroundImageFix" result="effect1_dropShadow_134_80"/>
<feBlend mode="normal" in="SourceGraphic" in2="effect1_dropShadow_134_80" result="shape"/>
</filter>
<filter id="filter5_d_134_80" x="-172" y="119" width="199" height="67" filterUnits="userSpaceOnUse" color-interpolation-filters="sRGB">
<feFlood flood-opacity="0" result="BackgroundImageFix"/>
<feColorMatrix in="SourceAlpha" type="matrix" values="0 0 0 0 0 0 0 0 0 0 0 0 0 0 0 0 0 0 127 0" result="hardAlpha"/>
<feOffset dy="4"/>
<feGaussianBlur stdDeviation="8"/>
<feComposite in2="hardAlpha" operator="out"/>
<feColorMatrix type="matrix" values="0 0 0 0 0 0 0 0 0 0 0 0 0 0 0 0 0 0 0.06 0"/>
<feBlend mode="normal" in2="BackgroundImageFix" result="effect1_dropShadow_134_80"/>
<feBlend mode="normal" in="SourceGraphic" in2="effect1_dropShadow_134_80" result="shape"/>
</filter>
<filter id="filter6_d_134_80" x="11" y="119" width="199" height="67" filterUnits="userSpaceOnUse" color-interpolation-filters="sRGB">
<feFlood flood-opacity="0" result="BackgroundImageFix"/>
<feColorMatrix in="SourceAlpha" type="matrix" values="0 0 0 0 0 0 0 0 0 0 0 0 0 0 0 0 0 0 127 0" result="hardAlpha"/>
<feOffset dy="4"/>
<feGaussianBlur stdDeviation="8"/>
<feComposite in2="hardAlpha" operator="out"/>
<feColorMatrix type="matrix" values="0 0 0 0 0 0 0 0 0 0 0 0 0 0 0 0 0 0 0.06 0"/>
<feBlend mode="normal" in2="BackgroundImageFix" result="effect1_dropShadow_134_80"/>
<feBlend mode="normal" in="SourceGraphic" in2="effect1_dropShadow_134_80" result="shape"/>
</filter>
<filter id="filter7_d_134_80" x="194" y="119" width="141" height="67" filterUnits="userSpaceOnUse" color-interpolation-filters="sRGB">
<feFlood flood-opacity="0" result="BackgroundImageFix"/>
<feColorMatrix in="SourceAlpha" type="matrix" values="0 0 0 0 0 0 0 0 0 0 0 0 0 0 0 0 0 0 127 0" result="hardAlpha"/>
<feOffset dy="4"/>
<feGaussianBlur stdDeviation="8"/>
<feComposite in2="hardAlpha" operator="out"/>
<feColorMatrix type="matrix" values="0 0 0 0 0 0 0 0 0 0 0 0 0 0 0 0 0 0 0.06 0"/>
<feBlend mode="normal" in2="BackgroundImageFix" result="effect1_dropShadow_134_80"/>
<feBlend mode="normal" in="SourceGraphic" in2="effect1_dropShadow_134_80" result="shape"/>
</filter>
<filter id="filter8_d_134_80" x="319" y="119" width="187" height="67" filterUnits="userSpaceOnUse" color-interpolation-filters="sRGB">
<feFlood flood-opacity="0" result="BackgroundImageFix"/>
<feColorMatrix in="SourceAlpha" type="matrix" values="0 0 0 0 0 0 0 0 0 0 0 0 0 0 0 0 0 0 127 0" result="hardAlpha"/>
<feOffset dy="4"/>
<feGaussianBlur stdDeviation="8"/>
<feComposite in2="hardAlpha" operator="out"/>
<feColorMatrix type="matrix" values="0 0 0 0 0 0 0 0 0 0 0 0 0 0 0 0 0 0 0.06 0"/>
<feBlend mode="normal" in2="BackgroundImageFix" result="effect1_dropShadow_134_80"/>
<feBlend mode="normal" in="SourceGraphic" in2="effect1_dropShadow_134_80" result="shape"/>
</filter>
<filter id="filter9_d_134_80" x="490" y="119" width="159" height="67" filterUnits="userSpaceOnUse" color-interpolation-filters="sRGB">
<feFlood flood-opacity="0" result="BackgroundImageFix"/>
<feColorMatrix in="SourceAlpha" type="matrix" values="0 0 0 0 0 0 0 0 0 0 0 0 0 0 0 0 0 0 127 0" result="hardAlpha"/>
<feOffset dy="4"/>
<feGaussianBlur stdDeviation="8"/>
<feComposite in2="hardAlpha" operator="out"/>
<feColorMatrix type="matrix" values="0 0 0 0 0 0 0 0 0 0 0 0 0 0 0 0 0 0 0.06 0"/>
<feBlend mode="normal" in2="BackgroundImageFix" result="effect1_dropShadow_134_80"/>
<feBlend mode="normal" in="SourceGraphic" in2="effect1_dropShadow_134_80" result="shape"/>
</filter>
<linearGradient id="paint0_linear_134_80" x1="256" y1="0" x2="256" y2="250" gradientUnits="userSpaceOnUse">
<stop stop-color="#F0F0F0"/>
<stop offset="1" stop-color="#F0F0F0" stop-opacity="0"/>
</linearGradient>
<linearGradient id="paint1_linear_134_80" x1="0" y1="125.5" x2="512" y2="125.5" gradientUnits="userSpaceOnUse">
<stop stop-color="#D9D9D9" stop-opacity="0"/>
<stop offset="0.2" stop-color="#C8C8C8"/>
<stop offset="0.505" stop-color="#A2A2A2"/>
<stop offset="0.8" stop-color="#818181"/>
<stop offset="1" stop-color="#737373" stop-opacity="0"/>
</linearGradient>
</defs>
</svg>
